<svg width="1200" height="630" viewBox="0 0 1200 630" fill="none" xmlns="http://www.w3.org/2000/svg">
  <defs>
    <linearGradient id="bg" x1="84" y1="56" x2="1124" y2="574" gradientUnits="userSpaceOnUse">
      <stop stop-color="#0F172A" />
      <stop offset="1" stop-color="#09090B" />
    </linearGradient>
    <linearGradient id="glow" x1="0" y1="0" x2="1" y2="1">
      <stop stop-color="#A855F7" stop-opacity="0.32" />
      <stop offset="1" stop-color="#A855F7" stop-opacity="0.06" />
    </linearGradient>
    <filter id="shadow" x="0" y="0" width="1200" height="630" filterUnits="userSpaceOnUse" color-interpolation-filters="sRGB">
      <feDropShadow dx="0" dy="24" stdDeviation="32" flood-color="#000000" flood-opacity="0.35" />
    </filter>
  </defs>

  <rect width="1200" height="630" rx="36" fill="#050507" />
  <rect x="28" y="28" width="1144" height="574" rx="28" fill="url(#bg)" />
  <circle cx="992" cy="126" r="176" fill="#A855F7" fill-opacity="0.08" />
  <circle cx="1048" cy="520" r="140" fill="#A855F7" fill-opacity="0.06" />

  <g filter="url(#shadow)">
    <rect x="84" y="84" width="1032" height="462" rx="28" fill="#09090B" stroke="#27272A" stroke-width="2" />
    <rect x="84" y="84" width="1032" height="84" rx="28" fill="#111114" />
    <rect x="84" y="138" width="1032" height="1" fill="#27272A" />
    <circle cx="126" cy="126" r="8" fill="#EF4444" />
    <circle cx="154" cy="126" r="8" fill="#EAB308" />
    <circle cx="182" cy="126" r="8" fill="#22C55E" />
    <text x="220" y="132" fill="#A1A1AA" font-size="26" font-family="Arial, Helvetica, sans-serif">Terminal</text>

    <text x="128" y="244" fill="#FAFAFA" font-size="72" font-weight="700" font-family="Arial, Helvetica, sans-serif">rwd</text>
    <text x="128" y="308" fill="#FAFAFA" font-size="42" font-weight="700" font-family="Arial, Helvetica, sans-serif">Turn AI coding sessions into</text>
    <text x="128" y="360" fill="#FAFAFA" font-size="42" font-weight="700" font-family="Arial, Helvetica, sans-serif">daily developer notes.</text>
    <text x="128" y="424" fill="#A1A1AA" font-size="28" font-family="Arial, Helvetica, sans-serif">Open-source CLI for Claude Code and Codex.</text>

    <rect x="736" y="218" width="316" height="208" rx="24" fill="#0F1115" stroke="#27272A" />
    <rect x="760" y="254" width="86" height="16" rx="8" fill="#A855F7" fill-opacity="0.9" />
    <rect x="760" y="290" width="220" height="14" rx="7" fill="#FAFAFA" fill-opacity="0.92" />
    <rect x="760" y="322" width="188" height="14" rx="7" fill="#D4D4D8" fill-opacity="0.7" />
    <rect x="760" y="354" width="154" height="14" rx="7" fill="#A1A1AA" fill-opacity="0.55" />
    <rect x="760" y="392" width="246" height="1" fill="#27272A" />
    <text x="760" y="438" fill="#A855F7" font-size="24" font-family="Arial, Helvetica, sans-serif">decisions</text>
    <text x="900" y="438" fill="#A855F7" font-size="24" font-family="Arial, Helvetica, sans-serif">learnings</text>
    <text x="760" y="476" fill="#A855F7" font-size="24" font-family="Arial, Helvetica, sans-serif">summaries</text>
    <text x="920" y="476" fill="#A855F7" font-size="24" font-family="Arial, Helvetica, sans-serif">markdown</text>
  </g>

  <rect x="84" y="84" width="1032" height="462" rx="28" fill="url(#glow)" />
</svg>
